<svg xmlns="http://www.w3.org/2000/svg" xmlns:xlink="http://www.w3.org/1999/xlink" viewBox="0 0 36 36"><defs><path id="a" d="M0 0h36v36H0z"/></defs><clipPath id="b"><use xlink:href="#a" overflow="visible"/></clipPath><path clip-path="url(#b)" fill="#404040" d="M18 0C8.1 0 0 8.1 0 18s8.1 18 18 18 18-8.1 18-18S27.9 0 18 0zm-5 25.5H9.5V14.3H13v11.2zm-1.9-12.6c-1.3 0-2.1-.9-2.1-2S9.8 9 11.1 9s2.1.8 2.1 1.9c.1 1.1-.8 2-2.1 2zM27 25.5h-4v-5.8c0-1.5-.6-2.6-2-2.6-1 0-1.6.7-1.9 1.4-.1.3-.1.6-.1 1v6.1h-3.9s.1-10.3 0-11.2H19v1.8c.2-.8 1.5-1.9 3.5-1.9 2.5 0 4.5 1.6 4.5 5.1v6.1z"/></svg>